# xmcd
#
# Track frame offsets:
# 150
# 20123
# 45315
# 60877
# 84080
# 115230
# 137519
# 154483
# 170738
# 194753
#
# Disc length: 2778 seconds
#
# Revision: 1
# Processed by: cddbd v1.5.2PL0 Copyright (c) Steve Scherf et al.
# Submitted via: CedeCatalogueitor 2.6.0.6 http://personales.ya.com/cdcatalogueitor
#
DISCID=800ad80a
DTITLE=Project Skyward - Moved By Opposing Forces
DYEAR=1900
DGENRE=
TTITLE0=Canis Major
TTITLE1=Sirius The Brightest Star
TTITLE2=Means Nothing Today
TTITLE3=Superblaster
TTITLE4=Hungry Ghost
TTITLE5=Lunacy
TTITLE6=Fractured
TTITLE7=Moemoires Just Wash Away
TTITLE8=Fairweahter Friend
TTITLE9=Omniscience
EXTD=
EXTT0=
EXTT1=
EXTT2=
EXTT3=
EXTT4=
EXTT5=
EXTT6=
EXTT7=
EXTT8=
EXTT9=
PLAYORDER=
